HIERARCHY
ROOT Hips
{
	OFFSET -3.958830 18.904000 13.208200
	CHANNELS 6 Xposition Yposition Zposition Zrotation Yrotation Xrotation 
	JOINT LHipJoint
	{
		OFFSET 0.000000 0.000000 0.000000
		CHANNELS 3 Zrotation Yrotation Xrotation
		JOINT LeftUpLeg
		{
			OFFSET 1.800000 -1.400000 0.085000
			CHANNELS 3 Zrotation Yrotation Xrotation
			JOINT LeftLeg
			{
				OFFSET 2.215000 -6.000000 0.000000
				CHANNELS 3 Zrotation Yrotation Xrotation
				JOINT LeftFoot
				{
					OFFSET 2.500000 -6.900000 0.000000
					CHANNELS 3 Zrotation Yrotation Xrotation
					JOINT LeftToeBase
					{
						OFFSET 0.200000 -0.500000 1.950000
						CHANNELS 3 Zrotation Yrotation Xrotation
						End Site
						{
							OFFSET 0.000000 0.000000 0.000000
						}
					}
				}
			}
		}
	}
	JOINT RHipJoint
	{
		OFFSET 0.000000 0.000000 0.000000
		CHANNELS 3 Zrotation Yrotation Xrotation
		JOINT RightUpLeg
		{
			OFFSET -1.800000 -1.400000 0.085000
			CHANNELS 3 Zrotation Yrotation Xrotation
			JOINT RightLeg
			{
				OFFSET -2.215000 -6.000000 0.000000
				CHANNELS 3 Zrotation Yrotation Xrotation
				JOINT RightFoot
				{
					OFFSET -2.500000 -6.900000 0.000000
					CHANNELS 3 Zrotation Yrotation Xrotation
					JOINT RightToeBase
					{
						OFFSET -0.200000 -0.500000 1.950000
						CHANNELS 3 Zrotation Yrotation Xrotation
						End Site
						{
							OFFSET 0.000000 0.000000 0.000000
						}
					}
				}
			}
		}
	}
	JOINT LowerBack
	{
		OFFSET 0.000000 0.000000 0.000000
		CHANNELS 3 Zrotation Yrotation Xrotation
		JOINT Spine
		{
			OFFSET -0.087000 1.940000 -0.288900
			CHANNELS 3 Zrotation Yrotation Xrotation
			JOINT Spine1
			{
				OFFSET 0.000000 1.950000 0.060000
				CHANNELS 3 Zrotation Yrotation Xrotation
				JOINT Neck
				{
					OFFSET 0.000000 0.000000 0.000000
					CHANNELS 3 Zrotation Yrotation Xrotation
					JOINT Neck1
					{
						OFFSET 0.000000 1.600000 0.340000
						CHANNELS 3 Zrotation Yrotation Xrotation
						JOINT Head
						{
							OFFSET 0.000000 1.667000 -0.240000
							CHANNELS 3 Zrotation Yrotation Xrotation
							End Site
							{
								OFFSET 0.000000 0.000000 0.000000
							}
						}
					}
				}
				JOINT LeftShoulder
				{
					OFFSET 0.000000 0.000000 0.000000
					CHANNELS 3 Zrotation Yrotation Xrotation
					JOINT LeftArm
					{
						OFFSET 2.700000 1.550000 -0.730000
						CHANNELS 3 Zrotation Yrotation Xrotation
						JOINT LeftForeArm
						{
							OFFSET 5.450000 0.000000 0.000000
							CHANNELS 3 Zrotation Yrotation Xrotation
							JOINT LeftHand
							{
								OFFSET 3.450000 0.000000 0.000000
								CHANNELS 3 Zrotation Yrotation Xrotation
								JOINT LeftHandIndex1
								{
									OFFSET 0.750000 0.000000 0.000000
									CHANNELS 3 Zrotation Yrotation Xrotation
									End Site
									{
										OFFSET 0.000000 0.000000 0.000000
									}
								}
							}
						}
					}
				}
				JOINT RightShoulder
				{
					OFFSET 0.000000 0.000000 0.000000
					CHANNELS 3 Zrotation Yrotation Xrotation
					JOINT RightArm
					{
						OFFSET -2.700000 1.550000 -0.730000
						CHANNELS 3 Zrotation Yrotation Xrotation
						JOINT RightForeArm
						{
							OFFSET -5.450000 0.000000 0.000000
							CHANNELS 3 Zrotation Yrotation Xrotation
							JOINT RightHand
							{
								OFFSET -3.450000 0.000000 0.000000
								CHANNELS 3 Zrotation Yrotation Xrotation
								JOINT RightHandIndex1
								{
									OFFSET -0.750000 0.000000 0.000000
									CHANNELS 3 Zrotation Yrotation Xrotation
									End Site
									{
										OFFSET 0.000000 0.000000 0.000000
									}
								}
							}
						}
					}
				}
			}
		}
	}
}
MOTION
Frames: 8
Frame Time: 0.016667
0.249950 16.639980 -0.880180 -0.917988 -0.958590 -4.612942 -14.908355 13.291683 3.531625 12.126168 -1.630182 -25.027859 -5.809611 4.929330 10.086680 -0.080165 3.049586 3.443582 -0.148750 -0.238360 -0.168880 18.226825 -11.863154 2.630647 -4.861309 -0.772211 3.788390 0.316486 -6.498588 28.364743 -0.540064 -5.555640 2.577652 -0.181320 0.182260 -0.015510 -3.796793 -0.830156 -8.049955 7.076555 2.041201 7.787057 -16.464143 2.966891 -6.443726 7.016890 -4.092834 -14.803131 -9.026365 3.732983 37.998754 4.965310 -0.653400 3.320860 -4.036895 3.412709 3.735544 -15.694819 17.551323 -2.947711 0.458690 12.992308 -0.668963 -4.166672 2.597613 0.123910 0.027020 -0.087220 0.037350 -9.518119 5.067447 10.788606 -12.143490 -15.158774 0.238193 6.884970 -5.176473 -1.655125 2.721841 -0.769904 -0.094040 0.056420 0.095070 0.014350 
0.252910 16.629960 -0.893490 -0.884727 -1.097448 -4.692244 -14.904993 13.335709 3.555915 12.183184 -1.646323 -25.309184 -5.870937 5.059867 10.739153 -0.072051 3.095874 3.422402 -0.144710 -0.232310 -0.170310 18.220046 -11.865861 2.611087 -4.864342 -0.598446 3.239500 0.202121 -6.535851 29.399055 -0.543850 -5.601771 2.558164 -0.179130 0.181470 -0.016370 -3.790801 -0.903915 -8.065495 7.271337 1.827489 8.235237 -16.497881 2.756519 -6.901612 7.064503 -4.381330 -14.932606 -9.602527 3.998655 38.002863 5.015160 -0.603540 3.340170 -3.703221 3.652778 3.618689 -16.012221 17.195639 -2.964964 0.816755 12.877106 -0.585164 -4.167073 2.603137 0.122880 0.024360 -0.086160 0.040730 -9.889350 5.230645 10.936088 -11.858389 -14.033356 0.182504 6.570133 -5.259094 -1.595659 2.749505 -0.747606 -0.091330 0.056060 0.092410 0.017210 
0.251880 16.606440 -0.927220 -0.985431 -1.345356 -5.037670 -14.899098 13.416231 3.576079 12.326374 -1.634062 -25.828151 -5.775829 5.289888 12.086968 -0.059188 3.194769 3.378649 -0.134980 -0.217180 -0.182670 18.221630 -11.837924 2.596585 -4.139243 -0.336558 2.406875 -0.682641 -6.340869 31.709133 -0.564514 -5.718825 2.511340 -0.169240 0.190680 -0.016930 -3.799811 -1.076146 -8.064034 7.906814 1.399156 9.194405 -16.563126 2.507026 -7.181736 7.066642 -5.123156 -15.187780 -11.080919 4.634042 37.590545 5.592680 -0.793070 3.298050 -2.897495 3.999411 3.338182 -16.725274 15.619055 -2.934780 1.264432 12.553597 -0.481429 -4.167969 2.625738 0.115890 0.021300 -0.090270 0.052220 -10.546587 5.679158 11.317937 -11.324768 -12.208668 0.141255 5.400634 -5.200892 -1.394328 2.813649 -0.709221 -0.086440 0.059700 0.090830 0.029290 
0.245310 16.581080 -0.974690 -1.100663 -1.145031 -5.476068 -14.907975 13.536615 3.605935 11.868868 -1.803104 -26.716479 -5.190987 5.401782 13.789000 -0.039320 3.224854 3.362228 -0.135380 -0.199420 -0.207020 18.205977 -11.764001 2.628621 -2.895299 -0.114474 1.511632 -1.502195 -6.175478 34.368643 -0.600242 -5.879338 2.451870 -0.161120 0.201610 -0.030040 -3.774485 -1.383888 -8.094015 8.448093 0.561277 10.636014 -16.587987 1.783315 -8.209271 7.242928 -6.080289 -15.744125 -13.146155 5.597371 37.604080 6.345190 -1.029500 3.616690 -1.385171 4.708552 2.980483 -18.678846 13.677422 -3.027600 3.930970 10.714560 -0.003128 -4.157499 2.658528 0.099940 0.014400 -0.093090 0.063990 -12.092035 6.333560 11.940753 -10.476482 -9.061469 0.108909 3.397448 -5.039387 -1.053703 2.919854 -0.638447 -0.080410 0.070930 0.088610 0.051070 
0.217760 16.543490 -1.078580 -0.313979 -1.057389 -8.140960 -14.854039 13.437928 3.474781 12.053932 -1.680490 -25.530619 -6.091893 5.974274 15.648354 -0.055386 3.529287 3.244420 -0.063690 -0.117790 -0.148750 18.287041 -11.876961 2.552093 -3.806628 0.053139 2.307569 -1.685053 -6.618282 37.068313 -0.719859 -6.304318 2.294794 -0.101610 0.179780 -0.024600 -3.968152 -1.054078 -7.916944 8.171683 -0.114939 11.956201 -18.376412 2.486981 -2.583051 6.916878 -5.345044 -15.728997 -11.656250 5.499743 37.244125 6.816430 -0.603750 1.323130 -4.761134 0.264974 4.000334 -14.016022 11.463225 -1.931760 4.141216 10.664153 -0.132406 -4.132648 2.691252 0.127570 0.002340 -0.064700 0.072790 -8.554614 8.709145 11.839852 -12.928461 -9.003245 0.425453 1.957012 -5.610839 -0.890252 2.920983 -0.702133 -0.080220 0.094060 0.061960 0.033880 
0.194160 16.504990 -1.176530 0.276154 -1.245287 -9.900903 -14.829309 13.423728 3.388443 12.154552 -1.612055 -25.100345 -5.831247 6.176873 17.076136 -0.090617 3.684946 3.180862 -0.027370 -0.078700 -0.112500 18.324231 -11.959415 2.501163 -4.065616 0.153310 2.643144 -3.046341 -6.243257 38.631013 -0.771390 -6.477475 2.228203 -0.062720 0.169620 -0.025180 -4.049006 -0.909061 -7.797685 7.730359 -0.551731 12.928706 -19.278107 3.057695 0.980541 6.798728 -4.844649 -15.989078 -10.770753 5.488131 37.382955 6.645600 -0.143630 0.227670 -6.312804 -3.172592 4.739375 -9.887731 8.415072 -1.151343 5.349738 11.155633 -0.075937 -4.155430 2.690848 0.145550 0.002480 -0.055010 0.071290 -6.926300 11.113453 11.864887 -14.922903 -7.204806 0.541256 1.174974 -5.433734 -0.749215 2.900470 -0.725443 -0.091910 0.113460 0.054700 0.015000 
0.158760 16.478020 -1.277260 0.515914 -1.197214 -11.570961 -14.802523 13.384848 3.321349 12.269825 -1.596060 -24.923136 -5.429656 6.309015 18.512397 -0.116323 3.796634 3.117464 0.024300 -0.022520 -0.052170 18.359576 -12.030886 2.511834 -3.834589 0.145368 2.957624 -3.706437 -6.163490 40.043788 -0.849581 -6.653254 2.153201 -0.028500 0.122290 -0.014870 -4.133537 -0.701986 -7.765025 7.254230 -0.819233 14.044346 -19.982071 3.611813 3.460890 6.659592 -3.617543 -16.236051 -8.740224 4.955580 39.182843 6.195840 0.253810 -0.964210 -7.836689 -6.904217 5.553382 -4.674180 5.403208 -0.565741 5.529579 10.974848 -0.183161 -4.154681 2.662734 0.176340 -0.014560 -0.014770 0.063800 -5.393585 13.431508 11.703508 -17.135436 -4.558985 0.175831 -0.651998 -6.743314 -0.570900 2.951624 -0.728941 -0.082370 0.110320 0.031860 -0.009320 
0.129830 16.447920 -1.378080 0.463576 -0.915652 -13.106280 -14.808599 13.399304 3.276816 12.310399 -1.649136 -25.264797 -4.425115 6.442484 20.941048 -0.138461 3.966905 3.020651 0.067020 0.021330 0.014920 18.355403 -12.059558 2.547072 -3.378592 0.172552 3.087596 -4.065569 -6.249556 41.836551 -0.937223 -6.855779 2.063283 -0.003320 0.057910 -0.013680 -4.122194 -0.628484 -7.785896 6.661384 -0.783786 15.663730 -19.705876 4.170404 4.973731 6.603709 -2.570952 -16.621556 -7.176521 4.445248 41.334484 5.566190 0.693810 -2.312920 -8.556112 -10.307271 6.132676 -0.782606 1.611447 -0.172986 4.602763 9.527270 -0.372351 -4.122045 2.606715 0.220500 -0.045730 0.032450 0.041970 -4.662729 15.816266 11.594925 -19.255456 -2.279931 -0.335424 -2.079456 -6.937459 -0.396832 2.974394 -0.712744 -0.077350 0.106170 0.014210 -0.043000 
